<svg width="40" height="40" viewBox="0 0 40 40" fill="none" xmlns="http://www.w3.org/2000/svg">
<path d="M20 37.5062L19.6283 37.3623C7.6903 32.748 6.30975 26.7167 6.30975 22.5816V6.78786L7.37547 6.8244C15.6736 7.10697 19.2071 3.36183 19.2404 3.32529L20.001 2.49377L20.7606 3.32529C20.7885 3.35539 24.1372 6.83943 31.7392 6.83943C31.7392 6.83943 31.7392 6.83943 31.7403 6.83943C32.0293 6.83943 32.3247 6.83511 32.6244 6.8244L33.6902 6.78786V22.5816C33.6902 26.7167 32.3096 32.748 20.3717 37.3623L20 37.5062ZM8.37036 8.89999V22.5816C8.37036 24.8054 8.37144 30.6767 20 35.2953C31.6296 30.6767 31.6296 24.8054 31.6296 22.5816V8.89999C25.1901 8.87529 21.4847 6.58372 20 5.3998C18.5142 6.58264 14.8088 8.87313 8.37036 8.89999Z" fill="#2463EB"/>
</svg>
