<svg width="57" height="57" viewBox="0 0 57 57" fill="none" xmlns="http://www.w3.org/2000/svg">
<path d="M12.1268 5.27023C10.089 6.09198 8.73526 7.41248 6.74976 9.90148C1.81688 16.0931 6.22725 28.4265 17.5893 39.6935L18.1783 40.2706C28.8658 50.5449 42.3914 54.9956 47.5523 50.5164L47.7209 50.3596L47.6401 50.4261C49.112 49.2371 50.3251 47.7597 51.205 46.0846C53.0504 42.5221 52.5493 38.8005 48.9131 35.9006C43.6786 31.7254 40.1636 31.5829 36.6985 34.7606L36.309 35.1264L35.3068 36.1191C34.8721 36.0289 34.2 35.7106 33.3735 35.1786C31.7253 34.1146 29.6709 32.3452 27.3291 30.0249C24.9945 27.7069 23.2061 25.6715 22.135 24.0351L21.9189 23.6955C21.6393 23.2625 21.4106 22.7986 21.2373 22.3132L21.185 22.1232L22.1944 21.1257L22.5625 20.7386C25.7616 17.302 25.6191 13.8155 21.413 8.62373C18.5559 5.09685 15.3093 3.98535 12.1268 5.27023ZM17.689 11.5877L18.3136 12.3715C20.4036 15.0814 20.4226 15.9815 19.2256 17.34L18.7625 17.834L17.5869 18.993C15.0551 21.501 16.1809 24.6882 19.9168 29.0796L20.7005 29.975L21.5484 30.9036L21.9996 31.3786L22.9449 32.3595L23.9566 33.376L24.472 33.8842L25.479 34.8556L26.448 35.7629C26.7663 36.0526 27.0774 36.3329 27.3838 36.6036L28.2863 37.3778C32.718 41.0829 35.9243 42.1967 38.456 39.6982L39.6269 38.5297L39.9356 38.2376C41.287 37.0026 42.123 36.8292 44.4291 38.4585L45.1298 38.9739L45.923 39.5914C47.6615 40.9784 47.8301 42.2395 46.9585 43.921C46.5556 44.6656 46.0521 45.3513 45.4623 45.9587L45.0585 46.3672L44.7498 46.6522L44.4529 46.9111C43.6501 47.7067 40.5626 47.7827 36.594 46.4812C31.5448 44.8235 26.0181 41.356 20.9665 36.3447C11.1079 26.5669 7.52876 16.561 10.4928 12.8394C11.9653 10.9916 12.9224 10.0606 13.9246 9.65685C14.9981 9.22223 16.0716 9.59035 17.689 11.5877Z" fill="black"/>
</svg>
