<svg width="41" height="41" viewBox="0 0 41 41" fill="none" xmlns="http://www.w3.org/2000/svg">
<path d="M20.5 24.4118C17.0275 24.4118 14.2036 21.5878 14.2036 18.1154C14.2036 16.672 14.7056 15.2705 15.6051 14.1409L15.6888 14.0363L15.8143 13.9526C16.9857 13.2414 18.6801 12.823 20.4791 12.823C22.278 12.823 23.9724 13.2414 25.1439 13.9526L25.2694 14.0363L25.353 14.1409C26.2735 15.2495 26.7546 16.672 26.7546 18.1154C26.7964 21.5878 23.9724 24.4118 20.5 24.4118ZM16.8183 15.3123C16.1908 16.1281 15.877 17.0904 15.877 18.1154C15.877 20.6674 17.9479 22.7383 20.5 22.7383C23.052 22.7383 25.1229 20.6674 25.1229 18.1154C25.1229 17.0904 24.7882 16.1281 24.1816 15.3123C23.2821 14.8103 21.9224 14.4965 20.5 14.4965C19.0775 14.4965 17.7388 14.8103 16.8183 15.3123ZM21.7551 11.6097H19.2449C18.7847 11.6097 18.4081 11.2332 18.4081 10.773C18.4081 10.3128 18.7847 9.93628 19.2449 9.93628H21.7551C22.2153 9.93628 22.5918 10.3128 22.5918 10.773C22.5918 11.2332 22.2153 11.6097 21.7551 11.6097Z" fill="#2463EB"/>
<path d="M20.5 12.8648C20.0398 12.8648 19.6633 12.4883 19.6633 12.0281V9.51789C19.6633 9.05768 20.0398 8.68115 20.5 8.68115C20.9602 8.68115 21.3368 9.05768 21.3368 9.51789V12.0072C21.3368 12.4883 20.9602 12.8648 20.5 12.8648ZM20.5 34.097C17.7806 34.097 15.2286 33.7832 13.325 33.1975C10.2291 32.2562 9.58063 30.8128 9.58063 29.7878C9.58063 26.0016 12.2582 22.6337 16.4 21.2322L16.8811 21.0648L17.2577 21.4204C18.1362 22.2781 19.2658 22.7383 20.4791 22.7383C21.6924 22.7383 22.8429 22.2781 23.7005 21.4204L24.0771 21.0648L24.5582 21.2322C28.7 22.6546 31.3776 26.0016 31.3776 29.7878C31.4194 32.9674 25.5413 34.097 20.5 34.097ZM16.5046 22.9684C13.3041 24.2235 11.275 26.8592 11.275 29.7878C11.275 31.0638 14.9776 32.4235 20.5209 32.4235C26.0643 32.4235 29.7669 31.0638 29.7669 29.7878C29.7669 26.8592 27.7378 24.2444 24.5373 22.9684C23.4077 23.8888 22.0061 24.4118 20.5419 24.4118C19.0357 24.4118 17.6342 23.9097 16.5046 22.9684Z" fill="#2463EB"/>
<path d="M25.9597 17.2367C25.4995 17.2367 25.1229 16.8602 25.1229 16.4C25.1229 15.626 23.324 14.5174 20.5 14.5174C17.676 14.5174 15.877 15.647 15.877 16.4C15.877 16.8602 15.5005 17.2367 15.0403 17.2367C14.5801 17.2367 14.2036 16.8602 14.2036 16.4V10.4592C14.2036 8.43012 16.902 6.90308 20.5 6.90308C24.0979 6.90308 26.7964 8.43012 26.7964 10.4592V16.3791C26.7964 16.8602 26.4199 17.2367 25.9597 17.2367ZM20.5 12.823C22.3617 12.823 23.9933 13.2413 25.1229 13.9107V10.4592C25.1229 9.68522 23.324 8.57655 20.5 8.57655C17.676 8.57655 15.877 9.70614 15.877 10.4592V13.9107C17.0066 13.2413 18.6382 12.823 20.5 12.823Z" fill="#2463EB"/>
<path d="M7.96991 30.9591C7.90716 30.9591 7.8444 30.9591 7.78165 30.9382C4.45563 30.1852 3.76532 28.8255 3.76532 27.8214C3.76532 25.102 5.45971 22.6545 8.20001 21.3367C7.69797 20.5209 7.42603 19.5795 7.42603 18.6173C7.42603 18.2826 7.46787 17.9688 7.50971 17.6341C7.44695 17.5086 7.42603 17.3831 7.42603 17.2576V12.5719C7.40512 10.8775 9.62246 9.58057 12.551 9.58057C12.7811 9.58057 12.9903 9.66424 13.1577 9.83159C13.325 9.99893 13.4087 10.2081 13.3878 10.4382V10.4801C13.3669 10.9193 13.0112 11.2959 12.551 11.2959C12.4674 11.2959 12.3837 11.275 12.3 11.254C10.2919 11.3168 9.07859 12.1117 9.07859 12.5719V15.0612C9.35052 15.0193 9.64338 15.1239 9.83165 15.3331C10.1036 15.6469 10.1036 16.0862 9.85257 16.4209C9.35052 17.0484 9.07859 17.8015 9.07859 18.6173C9.07859 19.5586 9.45512 20.4372 10.1245 21.1066C10.4383 21.3994 10.4592 21.9015 10.1873 22.2362C10.0827 22.3826 9.93624 22.4663 9.76889 22.5081C7.13318 23.4076 5.43879 25.4994 5.43879 27.8214C5.43879 28.2607 6.27552 28.8673 8.15818 29.3066C8.61838 29.4112 8.89032 29.8505 8.78573 30.3107C8.70205 30.6872 8.36736 30.9591 7.96991 30.9591Z" fill="#2463EB"/>
<path d="M33.0301 30.9591C32.6536 30.9591 32.298 30.6872 32.2143 30.3107C32.1097 29.8505 32.4025 29.4112 32.8418 29.3066C34.7245 28.8882 35.5612 28.2607 35.5612 27.8214C35.5612 25.4994 33.8668 23.4076 31.2311 22.4872C31.0638 22.4454 30.9173 22.3408 30.8128 22.2153C30.5408 21.8806 30.5617 21.3994 30.8755 21.0857C31.5449 20.4372 31.9214 19.5377 31.9214 18.5964C31.9214 17.7806 31.6495 17.0275 31.1474 16.4C30.8964 16.0862 30.8964 15.626 31.1684 15.3122C31.3566 15.0821 31.6495 14.9984 31.9214 15.0403V12.5719C31.9214 12.1326 30.7082 11.3168 28.7 11.254C28.6163 11.275 28.5327 11.2959 28.449 11.2959C27.9888 11.2959 27.6332 10.9403 27.6122 10.4801V10.4382C27.6122 10.2081 27.6959 9.99893 27.8423 9.83159C28.0097 9.66424 28.2189 9.58057 28.449 9.58057C31.3776 9.58057 33.5949 10.8566 33.5949 12.5719V17.2576C33.5949 17.404 33.5531 17.5295 33.5112 17.6341C33.574 17.9479 33.5949 18.2826 33.5949 18.6173C33.5949 19.6005 33.323 20.5418 32.8209 21.3367C35.5403 22.6545 37.2556 25.102 37.2556 27.8214C37.2556 28.8255 36.5653 30.1852 33.2184 30.9382C33.1347 30.9591 33.0719 30.9591 33.0301 30.9591Z" fill="#2463EB"/>
</svg>
