<svg width="36" height="36" viewBox="0 0 36 36" fill="none" xmlns="http://www.w3.org/2000/svg">
<path d="M21.5674 35.8978H14.4326C7.66501 35.8978 2.31995 35.8978 2.31995 32.3876V31.6854C2.31995 25.107 7.75439 19.7558 14.4326 19.7558H21.5672C28.2455 19.7558 33.6801 25.107 33.6801 31.6854V32.3876C33.6789 35.8978 28.0651 35.8978 21.5674 35.8978ZM14.4314 21.8599C8.91393 21.8599 4.42426 26.2667 4.42426 31.6842V32.3862C4.42426 33.7912 10.2077 33.7912 14.4314 33.7912H21.5662C25.0626 33.7912 31.5736 33.7912 31.5736 32.3862V31.6842C31.5736 26.2667 27.0837 21.8599 21.5662 21.8599H14.4314ZM17.6427 19.0516C12.34 19.0516 8.02807 14.801 8.02807 9.57621C8.02807 4.35163 12.3402 0.102295 17.6427 0.102295C22.9452 0.102295 27.2574 4.35163 27.2574 9.57621C27.2574 14.801 22.9442 19.0516 17.6427 19.0516ZM10.1336 9.57621C10.1336 13.639 13.5022 16.946 17.6427 16.946C21.7836 16.946 25.152 13.6402 25.152 9.57621C25.152 5.51219 21.7834 2.20763 17.6427 2.20763C13.5022 2.20763 10.1336 5.51363 10.1336 9.57621Z" fill="#2463EB"/>
</svg>
